<svg xmlns="http://www.w3.org/2000/svg" version="1.1" width="154" height="154" style=""><rect id="backgroundrect" width="100%" height="100%" x="0" y="0" fill="none" stroke="none" style="" class=""/>




<g class="currentLayer" style=""><title>Layer 1</title><path d="M3.552713678800501e-15,8.099832005115104e-8 C52.3565858833464,8.099832005115104e-8 104.7131717666928,8.099832005115104e-8 158.65632085862546,8.099832005115104e-8 C158.65632085862546,50.95814972579836 158.65632085862546,101.9162993705984 158.65632085862546,154.41863536827114 C106.29973497527908,154.41863536827114 53.943149091932646,154.41863536827114 3.552713678800501e-15,154.41863536827114 C3.552713678800501e-15,103.46048572347111 3.552713678800501e-15,52.5023360786711 3.552713678800501e-15,8.099832005115104e-8 z" fill="#FBFDFA" id="svg_1" class=""/><path d="M13.553165771124299,44.21601662096434 C17.84316577112429,44.21601662096434 22.133165771124297,44.21601662096434 26.5531657711243,44.21601662096434 C26.6085148911243,45.49766701096432 26.663864011124307,46.77931740096436 26.720890381124292,48.09980568096434 C26.927373881124296,52.856015140964345 27.139237911124297,57.61197233096435 27.352726321124294,62.367872090964326 C27.444364211124295,64.42607545096435 27.534543881124293,66.48434429096436 27.623234131124292,68.54267678096436 C27.750986681124303,71.50168289096435 27.8839858411243,74.46041374096434 28.0180095211243,77.41914162096434 C28.056595791124295,78.33906899096435 28.0951820711243,79.25899636096433 28.134937621124294,80.20680031096434 C28.17490359112429,81.06739052096434 28.214869571124296,81.92798073096434 28.256046631124292,82.81464943096434 C28.2893558011243,83.56965737096435 28.32266498112429,84.32466530096433 28.356983521124306,85.10255226096434 C28.554170931124304,87.22684514096433 28.980408451124305,89.16388585096435 29.5531657711243,91.21601662096434 C29.6691008311243,90.35323098096434 29.78503589112429,89.49044533096433 29.904484131124292,88.60151467096433 C30.336409521124303,85.39758231096435 30.770933341124305,82.19401618096434 31.207218501124302,78.99067482096434 C31.3954347711243,77.60474820096435 31.58261767112429,76.21868082096434 31.76874194112429,74.83247170096435 C32.036604761124295,72.83885804096433 32.3085048011243,70.84578814096433 32.5805095211243,68.85273537096434 C32.7428508311243,67.65350441096435 32.9051921411243,66.45427346096433 33.07245288112429,65.21870217096433 C33.5531657711243,62.21601662096434 33.5531657711243,62.21601662096434 34.5531657711243,59.21601662096434 C39.1731657711243,59.21601662096434 43.79316577112429,59.21601662096434 48.5531657711243,59.21601662096434 C50.203165771124304,70.10601662096433 51.853165771124296,80.99601662096434 53.5531657711243,92.21601662096434 C54.017228271124296,84.79101662096433 54.017228271124296,84.79101662096433 54.4906657711243,77.21601662096434 C55.1781657711243,66.21601662096434 55.8656657711243,55.21601662096434 56.5531657711243,44.21601662096434 C60.513165771124314,44.21601662096434 64.47316577112431,44.21601662096434 68.5531657711243,44.21601662096434 C68.85033143112429,58.59002980096436 67.92845754112429,72.87454692096433 67.0531657711243,87.21601662096434 C66.9082027211243,89.64828259096434 66.7636682111243,92.08057414096434 66.6195720211243,94.51289162096434 C66.26903959112428,100.41423961096434 65.91272215112429,106.31521185096433 65.5531657711243,112.21601662096434 C59.28316577112428,112.21601662096434 53.01316577112431,112.21601662096434 46.5531657711243,112.21601662096434 C45.21262858112431,107.52413646096436 44.239073371124306,103.77875145096435 43.7016032711243,99.06367287096434 C43.5726970211243,97.95830178096433 43.4437907711243,96.85293068096435 43.3109782711243,95.71406350096434 C43.12148608112431,94.01346779096433 43.12148608112431,94.01346779096433 42.9281657711243,92.27851662096434 C42.79410327112431,91.11771584096435 42.66004077112431,89.95691506096433 42.5219157711243,88.76093850096434 C42.193779661124296,85.91318586096433 41.871021271124306,83.06493192096433 41.5531657711243,80.21601662096434 C39.6618656711243,86.99180481096435 38.7463034111243,93.73680166096433 37.9281657711243,100.71601662096434 C37.79410327112431,101.82461037096435 37.66004077112431,102.93320412096433 37.5219157711243,104.07539162096434 C37.19448466112431,106.78839225096435 36.87319917112429,109.50213339096435 36.5531657711243,112.21601662096434 C29.953165771124304,112.21601662096434 23.353165771124296,112.21601662096434 16.5531657711243,112.21601662096434 C16.420392331124305,109.67269631096433 16.28761890112429,107.12937599096433 16.1508220211243,104.50898537096434 C16.018916091124296,102.01001651096435 15.886293721124304,99.51108661096434 15.753605221124303,97.01215920096435 C15.662689041124295,95.29279749096433 15.572502411124306,93.57339702096435 15.483097411124305,91.85395607096434 C14.916762401124302,80.50657939096435 14.916762401124302,80.50657939096435 13.990665771124299,69.18476662096434 C13.476800011124297,63.95751148096433 13.4396309511243,58.77725109096433 13.490665771124299,53.52851662096434 C13.495177491124295,52.624239280964346 13.499689211124299,51.719961930964345 13.504337651124295,50.788282240964335 C13.5159291011243,48.59749724096433 13.5338547311243,46.40674718096436 13.553165771124299,44.21601662096434 z" fill="#2D2C2D" id="svg_2" class=""/><path d="M105.8943876997208,44.21601662096434 C110.84438769972078,44.21601662096434 115.7943876997208,44.21601662096434 120.8943876997208,44.21601662096434 C120.8943876997208,66.65601662096434 120.8943876997208,89.09601662096433 120.8943876997208,112.21601662096434 C115.9443876997208,112.21601662096434 110.99438769972079,112.21601662096434 105.8943876997208,112.21601662096434 C105.8943876997208,102.97601662096433 105.8943876997208,93.73601662096435 105.8943876997208,84.21601662096434 C100.6143876997208,84.21601662096434 95.33438769972079,84.21601662096434 89.8943876997208,84.21601662096434 C89.8943876997208,93.45601662096435 89.8943876997208,102.69601662096434 89.8943876997208,112.21601662096434 C84.9443876997208,112.21601662096434 79.99438769972079,112.21601662096434 74.8943876997208,112.21601662096434 C74.8943876997208,90.10601662096433 74.8943876997208,67.99601662096434 74.8943876997208,45.21601662096434 C79.84438769972078,45.21601662096434 84.7943876997208,45.21601662096434 89.8943876997208,45.21601662096434 C89.8943876997208,54.126016620964336 89.8943876997208,63.03601662096433 89.8943876997208,72.21601662096434 C95.1743876997208,72.21601662096434 100.4543876997208,72.21601662096434 105.8943876997208,72.21601662096434 C105.8943876997208,62.97601662096433 105.8943876997208,53.73601662096432 105.8943876997208,44.21601662096434 z" fill="#2A292A" id="svg_3" class=""/><path d="M142.38052365934604,90.99643477854185 C145.07684233934603,92.49438959854184 146.21645751934605,93.49272703854184 147.63052365934604,96.24643477854185 C148.17848859934603,101.26944674854185 147.64543772934604,104.18789660854186 144.63052365934604,108.24643477854185 C142.03852236934603,110.83843606854184 140.85530136934605,110.54445845854185 137.25552365934604,110.55893477854185 C136.29903927934603,110.57569258854186 135.34255490934603,110.59245040854186 134.35708615934604,110.60971602854185 C131.21480985934605,110.19104597854185 129.88437533934604,109.44368287854185 127.63052365934604,107.24643477854185 C126.27174604934604,103.17010193854186 125.85612582934604,99.49817668854185 126.63052365934604,95.24643477854185 C131.29820748934603,89.66798337854185 135.56942488934604,89.13886238854185 142.38052365934604,90.99643477854185 z" fill="#366FAA" id="svg_4" class=""/></g></svg>